<svg xmlns="http://www.w3.org/2000/svg" viewBox="0 0 100 100" width="100" height="100">
  <rect width="100" height="100" rx="22" fill="#ede4d0"/>
  <!-- Pomme -->
  <path d="M50 32
           C42 22, 26 24, 24 40
           C22 54, 30 72, 42 78
           C46 80, 48 78, 50 78
           C52 78, 54 80, 58 78
           C70 72, 78 54, 76 40
           C74 24, 58 22, 50 32 Z"
        fill="#c97b3d"/>
  <!-- Brillance -->
  <ellipse cx="38" cy="46" rx="6" ry="9" fill="#e0a06a" opacity="0.55"/>
  <!-- Tige -->
  <path d="M50 32 C50 26, 51 20, 53 16" stroke="#5a3d28" stroke-width="3.5" fill="none" stroke-linecap="round"/>
  <!-- Feuille -->
  <path d="M53 22 C60 14, 72 14, 74 20 C70 28, 60 28, 53 22 Z" fill="#3c5a2a"/>
  <path d="M55 22 C62 19, 68 19, 72 21" stroke="#5a7d3a" stroke-width="1.5" fill="none" stroke-linecap="round"/>
</svg>
